<svg xmlns="http://www.w3.org/2000/svg" width="50.002" height="50.002" viewBox="0 0 46 46">
  <defs>
    <style>
      .cls-1 {
        fill: #fff;
        fill-rule: evenodd;
      }
    </style>
  </defs>
  <path class="cls-1" d="M2,2H48V12H2V2ZM2,2H48V12H2V2ZM2,2H48V12H2V2ZM2,2H48V12H2V2ZM2,2H48V12H2V2ZM2,2H48V12H2V2ZM2,20H48V30H2V20Zm0,0H48V30H2V20Zm0,0H48V30H2V20Zm0,0H48V30H2V20Zm0,0H48V30H2V20Zm0,0H48V30H2V20ZM2,38H48V48H2V38Zm0,0H48V48H2V38Zm0,0H48V48H2V38Zm0,0H48V48H2V38Zm0,0H48V48H2V38Zm0,0H48V48H2V38Z" transform="translate(-2 -2)"/>
</svg>
